<?xml version="1.0" encoding="utf-8"?>
<svg viewBox="384.596 210.527 18 22.024" xmlns="http://www.w3.org/2000/svg">
  <path fill-rule="evenodd" clip-rule="evenodd" d="M 398.007 211.373 L 398.008 212.199 C 400.763 212.436 402.582 214.503 402.585 217.673 L 402.596 226.952 C 402.6 230.408 400.628 232.535 397.468 232.54 L 389.748 232.551 C 386.607 232.556 384.611 230.379 384.607 226.913 L 384.596 217.743 C 384.592 214.552 386.348 212.49 389.102 212.212 L 389.101 211.386 C 389.1 210.902 389.426 210.538 389.86 210.538 C 390.295 210.537 390.621 210.9 390.622 211.384 L 390.623 212.155 L 396.487 212.146 L 396.486 211.375 C 396.485 210.891 396.811 210.528 397.246 210.527 C 397.67 210.526 398.006 210.889 398.007 211.373 Z M 386.117 218.083 L 401.066 218.061 L 401.066 217.676 C 401.023 215.309 399.945 214.068 398.01 213.883 L 398.011 214.73 C 398.011 215.203 397.676 215.579 397.252 215.579 C 396.817 215.58 396.49 215.206 396.49 214.732 L 396.489 213.841 L 390.625 213.85 L 390.626 214.74 C 390.626 215.214 390.301 215.589 389.866 215.589 C 389.432 215.59 389.105 215.217 389.105 214.742 L 389.104 213.895 C 387.179 214.107 386.114 215.353 386.117 217.741 L 386.117 218.083 Z M 396.836 223.085 L 396.836 223.098 C 396.846 223.604 397.221 223.988 397.676 223.977 C 398.12 223.965 398.475 223.546 398.465 223.039 C 398.444 222.555 398.088 222.16 397.645 222.161 C 397.19 222.172 396.835 222.579 396.836 223.085 Z M 397.651 228.028 C 397.197 228.017 396.831 227.599 396.83 227.093 C 396.82 226.587 397.184 226.167 397.639 226.155 L 397.649 226.155 C 398.113 226.155 398.489 226.572 398.489 227.09 C 398.49 227.607 398.115 228.026 397.651 228.028 Z M 392.768 223.103 C 392.788 223.609 393.164 224.005 393.618 223.983 C 394.063 223.959 394.417 223.541 394.397 223.035 C 394.386 222.54 394.021 222.154 393.577 222.155 C 393.123 222.177 392.767 222.597 392.768 223.103 Z M 393.622 227.978 C 393.168 228 392.793 227.605 392.772 227.099 C 392.772 226.592 393.127 226.174 393.581 226.151 C 394.025 226.15 394.391 226.535 394.401 227.029 C 394.422 227.537 394.066 227.955 393.622 227.978 Z M 388.7 223.142 C 388.72 223.648 389.096 224.044 389.55 224.021 C 389.995 223.999 390.349 223.58 390.328 223.073 C 390.319 222.578 389.953 222.193 389.508 222.194 C 389.054 222.216 388.699 222.635 388.7 223.142 Z M 389.554 227.984 C 389.1 228.007 388.725 227.61 388.704 227.104 C 388.703 226.598 389.059 226.178 389.513 226.156 C 389.957 226.155 390.324 226.541 390.333 227.036 C 390.354 227.542 390 227.962 389.554 227.984 Z" style="fill: rgb(154, 154, 169);"/>
</svg>