<?xml version="1.0" encoding="utf-8"?>
<svg viewBox="359.664 212.186 20 20" xmlns="http://www.w3.org/2000/svg">
  <path fill-rule="evenodd" clip-rule="evenodd" d="M 362.204 212.186 L 365.584 212.186 C 366.994 212.186 368.124 213.336 368.124 214.747 L 368.124 218.156 C 368.124 219.576 366.994 220.716 365.584 220.716 L 362.204 220.716 C 360.804 220.716 359.664 219.576 359.664 218.156 L 359.664 214.747 C 359.664 213.336 360.804 212.186 362.204 212.186 Z M 362.204 223.656 L 365.584 223.656 C 366.994 223.656 368.124 224.797 368.124 226.217 L 368.124 229.626 C 368.124 231.036 366.994 232.186 365.584 232.186 L 362.204 232.186 C 360.804 232.186 359.664 231.036 359.664 229.626 L 359.664 226.217 C 359.664 224.797 360.804 223.656 362.204 223.656 Z M 377.124 212.186 L 373.744 212.186 C 372.334 212.186 371.204 213.336 371.204 214.747 L 371.204 218.156 C 371.204 219.576 372.334 220.716 373.744 220.716 L 377.124 220.716 C 378.524 220.716 379.664 219.576 379.664 218.156 L 379.664 214.747 C 379.664 213.336 378.524 212.186 377.124 212.186 Z M 373.744 223.656 L 377.124 223.656 C 378.524 223.656 379.664 224.797 379.664 226.217 L 379.664 229.626 C 379.664 231.036 378.524 232.186 377.124 232.186 L 373.744 232.186 C 372.334 232.186 371.204 231.036 371.204 229.626 L 371.204 226.217 C 371.204 224.797 372.334 223.656 373.744 223.656 Z" fill="#9A9AA9"/>
</svg>