<?xml version="1.0" encoding="utf-8"?>
<svg viewBox="311.798 288.147 20 22.024" xmlns="http://www.w3.org/2000/svg">
  <path fill-rule="evenodd" clip-rule="evenodd" d="M 317.128 288.147 L 326.467 288.147 C 329.868 288.147 331.788 290.271 331.798 294.016 L 331.798 304.302 C 331.798 308.046 329.868 310.171 326.467 310.171 L 317.128 310.171 C 313.727 310.171 311.798 308.046 311.798 304.302 L 311.798 294.016 C 311.798 290.271 313.727 288.147 317.128 288.147 Z M 321.847 305.612 C 322.278 305.612 322.637 305.26 322.677 304.786 L 322.677 293.565 C 322.717 293.223 322.568 292.881 322.298 292.695 C 322.017 292.508 321.677 292.508 321.408 292.695 C 321.137 292.881 320.988 293.223 321.017 293.565 L 321.017 304.786 C 321.068 305.26 321.427 305.612 321.847 305.612 Z M 326.448 305.612 C 326.868 305.612 327.227 305.26 327.278 304.786 L 327.278 301.174 C 327.307 300.821 327.158 300.491 326.887 300.304 C 326.618 300.117 326.278 300.117 325.998 300.304 C 325.727 300.491 325.578 300.821 325.618 301.174 L 325.618 304.786 C 325.658 305.26 326.017 305.612 326.448 305.612 Z M 318.017 304.786 C 317.977 305.26 317.618 305.612 317.187 305.612 C 316.757 305.612 316.397 305.26 316.358 304.786 L 316.358 297.177 C 316.328 296.834 316.477 296.494 316.748 296.307 C 317.017 296.12 317.358 296.12 317.628 296.307 C 317.897 296.494 318.048 296.834 318.017 297.177 L 318.017 304.786 Z" fill="#605BFF"/>
</svg>