<?xml version="1.0" encoding="utf-8"?>
<svg viewBox="382.656 98.626 18 22.024" xmlns="http://www.w3.org/2000/svg">
  <path fill-rule="evenodd" clip-rule="evenodd" d="M 387.466 98.626 L 395.847 98.626 C 398.936 98.626 400.656 100.586 400.656 103.945 L 400.656 115.32 C 400.656 118.734 398.936 120.65 395.847 120.65 L 387.466 120.65 C 384.426 120.65 382.656 118.734 382.656 115.32 L 382.656 103.945 C 382.656 100.586 384.426 98.626 387.466 98.626 Z M 387.736 103.757 L 387.736 103.746 L 390.725 103.746 C 391.156 103.746 391.506 104.132 391.506 104.604 C 391.506 105.09 391.156 105.475 390.725 105.475 L 387.736 105.475 C 387.305 105.475 386.956 105.09 386.956 104.616 C 386.956 104.143 387.305 103.757 387.736 103.757 Z M 387.736 110.453 L 395.576 110.453 C 396.006 110.453 396.356 110.068 396.356 109.594 C 396.356 109.12 396.006 108.734 395.576 108.734 L 387.736 108.734 C 387.305 108.734 386.956 109.12 386.956 109.594 C 386.956 110.068 387.305 110.453 387.736 110.453 Z M 387.736 115.486 L 395.576 115.486 C 395.975 115.442 396.276 115.066 396.276 114.627 C 396.276 114.175 395.975 113.801 395.576 113.757 L 387.736 113.757 C 387.436 113.724 387.146 113.878 386.986 114.164 C 386.826 114.439 386.826 114.803 386.986 115.089 C 387.146 115.364 387.436 115.53 387.736 115.486 Z" style="fill: rgb(154, 154, 169);"/>
</svg>