<?xml version="1.0" encoding="utf-8"?>
<svg viewBox="233.091 253.865 17 22.0241" xmlns="http://www.w3.org/2000/svg">
  <path fill-rule="evenodd" clip-rule="evenodd" d="M 248.298 261.349 C 248.298 262.732 248.63 263.547 249.361 264.487 C 249.914 265.179 250.091 266.067 250.091 267.031 C 250.091 267.994 249.804 268.908 249.228 269.65 C 248.475 270.539 247.413 271.107 246.328 271.206 C 244.757 271.353 243.185 271.478 241.592 271.478 C 239.997 271.478 238.426 271.403 236.855 271.206 C 235.769 271.107 234.707 270.539 233.955 269.65 C 233.379 268.908 233.091 267.994 233.091 267.031 C 233.091 266.067 233.269 265.179 233.822 264.487 C 234.575 263.547 234.885 262.732 234.885 261.349 L 234.885 260.88 C 234.885 259.028 235.304 257.816 236.168 256.631 C 237.452 254.902 239.51 253.865 241.547 253.865 L 241.636 253.865 C 243.716 253.865 245.841 254.952 247.104 256.755 C 247.922 257.916 248.298 259.076 248.298 260.88 L 248.298 261.349 Z M 238.665 273.754 C 238.665 273.199 239.127 272.945 239.554 272.837 C 240.054 272.72 243.1 272.72 243.6 272.837 C 244.028 272.945 244.49 273.199 244.49 273.754 C 244.465 274.282 244.184 274.75 243.795 275.047 C 243.291 275.48 242.7 275.754 242.082 275.852 C 241.74 275.901 241.404 275.902 241.074 275.852 C 240.455 275.754 239.863 275.48 239.36 275.046 C 238.971 274.75 238.69 274.282 238.665 273.754 Z" style="fill: rgb(154, 154, 169);"/>
</svg>