<?xml version="1.0" encoding="utf-8"?>
<svg viewBox="405.4423 284.913 18.9997 22.024" xmlns="http://www.w3.org/2000/svg">
  <path fill-rule="evenodd" clip-rule="evenodd" d="M 423.344 297.665 C 423.702 297.874 423.978 298.205 424.172 298.535 C 424.55 299.218 424.52 300.055 424.152 300.793 L 423.436 302.114 C 423.058 302.819 422.353 303.259 421.628 303.259 C 421.27 303.259 420.871 303.149 420.544 302.929 C 420.279 302.742 419.972 302.676 419.645 302.676 C 418.633 302.676 417.785 303.59 417.754 304.68 C 417.754 305.946 416.814 306.937 415.639 306.937 L 414.249 306.937 C 413.064 306.937 412.123 305.946 412.123 304.68 C 412.103 303.59 411.255 302.676 410.243 302.676 C 409.906 302.676 409.599 302.742 409.344 302.929 C 409.017 303.149 408.608 303.259 408.26 303.259 C 407.525 303.259 406.819 302.819 406.441 302.114 L 405.736 300.793 C 405.358 300.077 405.338 299.218 405.716 298.535 C 405.879 298.205 406.186 297.874 406.533 297.665 C 406.819 297.511 407.003 297.258 407.177 296.96 C 407.688 296.013 407.381 294.769 406.513 294.207 C 405.501 293.579 405.174 292.181 405.757 291.091 L 406.441 289.791 C 407.034 288.701 408.301 288.315 409.323 288.954 C 410.212 289.483 411.367 289.13 411.888 288.194 C 412.052 287.886 412.144 287.556 412.123 287.225 C 412.103 286.796 412.215 286.388 412.409 286.058 C 412.788 285.375 413.472 284.935 414.218 284.913 L 415.659 284.913 C 416.416 284.913 417.1 285.375 417.478 286.058 C 417.662 286.388 417.785 286.796 417.754 287.225 C 417.734 287.556 417.826 287.886 417.989 288.194 C 418.511 289.13 419.665 289.483 420.565 288.954 C 421.576 288.315 422.854 288.701 423.436 289.791 L 424.121 291.091 C 424.714 292.181 424.387 293.579 423.365 294.207 C 422.496 294.769 422.19 296.013 422.711 296.96 C 422.874 297.258 423.058 297.511 423.344 297.665 Z M 412.052 295.936 C 412.052 297.665 413.35 299.042 414.954 299.042 C 416.559 299.042 417.826 297.665 417.826 295.936 C 417.826 294.207 416.559 292.819 414.954 292.819 C 413.35 292.819 412.052 294.207 412.052 295.936 Z" style="fill: rgb(154, 154, 169);"/>
</svg>