<?xml version="1.0" encoding="utf-8"?>
<svg viewBox="2.613 6.39 20 17.62" xmlns="http://www.w3.org/2000/svg">
  <path fill-rule="evenodd" clip-rule="evenodd" d="M 22.4 13.591 C 22.265 13.736 22.081 13.819 21.888 13.819 C 21.172 13.819 20.592 14.44 20.592 15.195 C 20.592 15.955 21.165 16.573 21.874 16.581 C 22.274 16.585 22.613 16.883 22.613 17.311 L 22.613 19.965 C 22.613 22.198 20.921 24.01 18.832 24.01 L 15.679 24.01 C 15.353 24.01 15.089 23.728 15.089 23.379 L 15.089 21.144 C 15.089 20.709 14.77 20.368 14.364 20.368 C 13.967 20.368 13.638 20.709 13.638 21.144 L 13.638 23.379 C 13.638 23.728 13.374 24.01 13.049 24.01 L 6.395 24.01 C 4.315 24.01 2.613 22.199 2.613 19.965 L 2.613 17.311 C 2.613 16.883 2.953 16.585 3.352 16.581 C 4.062 16.573 4.634 15.955 4.634 15.195 C 4.634 14.46 4.073 13.902 3.338 13.902 C 3.145 13.902 2.961 13.819 2.826 13.674 C 2.69 13.529 2.613 13.332 2.613 13.126 L 2.613 10.446 C 2.613 8.215 4.319 6.39 6.404 6.39 L 13.049 6.39 C 13.374 6.39 13.638 6.673 13.638 7.021 L 13.638 9.67 C 13.638 10.094 13.967 10.446 14.364 10.446 C 14.77 10.446 15.089 10.094 15.089 9.67 L 15.089 7.021 C 15.089 6.673 15.353 6.39 15.679 6.39 L 18.832 6.39 C 20.921 6.39 22.613 8.201 22.613 10.436 L 22.613 13.043 C 22.613 13.25 22.536 13.446 22.4 13.591 Z M 14.364 18.361 C 14.77 18.361 15.089 18.009 15.089 17.585 L 15.089 13.446 C 15.089 13.022 14.77 12.67 14.364 12.67 C 13.967 12.67 13.638 13.022 13.638 13.446 L 13.638 17.585 C 13.638 18.009 13.967 18.361 14.364 18.361 Z" style="fill: rgb(154, 154, 169);"/>
</svg>